<?xml version="1.0" standalone="no"?>
<!DOCTYPE svg PUBLIC "-//W3C//DTD SVG 20010904//EN"
 "http://www.w3.org/TR/2001/REC-SVG-20010904/DTD/svg10.dtd">
<svg version="1.0" xmlns="http://www.w3.org/2000/svg"
 width="1585.000000pt" height="2048.000000pt" viewBox="0 0 1585.000000 2048.000000"
 preserveAspectRatio="xMidYMid meet">
<metadata>
Created by potrace 1.15, written by Peter Selinger 2001-2017
</metadata>
<g transform="translate(0.000000,2048.000000) scale(0.100000,-0.100000)"
fill="#000000" stroke="none">
<path d="M3180 13725 c-746 -74 -1307 -295 -1651 -651 -198 -206 -317 -435
-381 -730 -21 -100 -23 -132 -22 -399 0 -319 12 -450 64 -707 16 -81 46 -195
66 -255 39 -119 126 -309 174 -380 17 -25 29 -47 27 -49 -2 -2 -37 2 -78 10
-41 8 -75 13 -75 13 -1 -1 -15 -45 -32 -97 -107 -334 -138 -430 -207 -645 -42
-132 -133 -413 -201 -624 -68 -211 -123 -385 -122 -386 2 -1 24 -13 50 -28 25
-15 163 -130 306 -256 288 -253 320 -274 591 -391 470 -203 1018 -327 1534
-346 151 -6 1836 2 5441 27 835 5 1520 8 1522 6 3 -2 -43 -134 -101 -292 -59
-158 -105 -289 -103 -291 2 -2 266 122 587 276 l584 279 81 -38 c289 -139 790
-211 1356 -198 135 4 296 13 359 22 448 62 783 202 1032 432 67 62 220 191
429 360 157 128 175 143 245 223 239 270 382 647 425 1120 11 132 14 1840 3
1840 -5 0 -19 9 -32 19 l-24 18 22 32 c12 17 29 31 37 31 12 0 14 141 14 1014
l0 1014 -702 6 c-387 3 -2408 10 -4493 16 -2084 6 -4418 12 -5185 15 -1159 3
-1420 2 -1540 -10z m5325 -135 c1799 -5 3989 -13 4868 -16 l1597 -7 0 -874 0
-873 -22 5 c-38 9 -632 94 -635 91 -2 -1 143 -97 322 -212 l325 -209 -3 -885
c-4 -934 -4 -943 -53 -1185 -22 -109 -84 -296 -134 -402 -129 -276 -363 -514
-639 -652 -211 -105 -435 -169 -736 -208 -174 -22 -721 -25 -940 -5 -425 40
-739 117 -908 225 -32 21 -61 37 -66 37 -8 0 -297 -136 -616 -290 -263 -127
-427 -199 -422 -187 2 7 20 59 40 117 20 58 59 165 86 239 28 74 49 136 48
137 -1 1 -882 -4 -1957 -11 -4641 -32 -5823 -37 -5975 -26 -503 36 -965 142
-1443 331 -168 66 -337 152 -336 171 1 12 244 769 432 1347 63 195 48 182 172
157 63 -13 250 -47 380 -70 30 -5 26 -2 -25 24 -144 72 -285 227 -384 421
-152 299 -224 679 -225 1180 -1 204 2 249 22 346 29 148 53 218 117 349 67
139 146 245 272 365 296 285 779 479 1377 555 233 29 349 32 1276 28 503 -2
2387 -8 4185 -13z"/>
<path d="M3315 13289 c-632 -42 -1096 -207 -1396 -497 -113 -108 -175 -190
-238 -312 -104 -202 -136 -360 -127 -610 16 -393 63 -599 181 -780 85 -132
184 -220 330 -293 136 -67 302 -109 614 -153 317 -44 450 -89 529 -179 56 -63
77 -129 75 -235 -2 -198 -103 -316 -324 -381 -95 -27 -347 -37 -500 -19 -225
25 -486 80 -731 153 l-118 35 -19 -61 c-10 -34 -78 -246 -150 -470 -73 -224
-129 -412 -126 -417 9 -14 336 -117 514 -161 989 -247 1759 -203 2229 127 89
63 227 203 285 291 209 314 294 770 236 1253 -49 396 -196 656 -469 824 -143
88 -330 145 -644 196 -249 40 -324 56 -419 87 -179 58 -267 169 -267 338 0
298 184 476 505 487 44 2 1959 2 4255 1 l4174 -3 -36 -37 c-81 -83 -147 -237
-179 -413 -18 -95 -18 -445 0 -555 57 -365 214 -608 476 -738 152 -76 262
-104 615 -157 264 -40 329 -55 415 -94 94 -44 128 -75 167 -154 31 -62 33 -73
32 -162 -1 -72 -6 -108 -22 -151 -96 -246 -441 -322 -1018 -224 -227 38 -604
138 -604 160 0 6 15 57 34 113 19 56 32 102 28 102 -4 0 -46 -39 -94 -87 l-86
-88 -51 -162 -52 -163 -537 -2 c-295 -2 -568 -3 -607 -3 -137 1 -212 43 -234
130 -8 31 -11 421 -11 1294 l0 1251 -492 2 c-271 2 -665 3 -875 3 l-383 0 0
-115 c1 -63 -2 -286 -4 -495 -3 -209 -8 -612 -11 -895 -3 -283 -8 -525 -10
-537 -3 -12 1 -23 7 -25 10 -4 12 -44 10 -161 -2 -135 0 -157 13 -157 9 0 16
10 16 23 1 17 3 16 8 -7 3 -16 13 -31 21 -33 9 -3 11 -1 5 4 -14 10 -18 134
-6 152 7 10 11 6 16 -18 7 -34 25 -42 25 -11 0 15 7 20 25 20 14 0 25 -5 25
-11 0 -5 -4 -7 -10 -4 -5 3 -10 1 -10 -4 0 -6 6 -11 14 -11 8 0 23 -3 33 -6
16 -6 16 -5 -1 8 -19 15 -19 16 2 22 12 4 30 3 40 -3 13 -7 22 -7 30 1 12 12
52 19 52 10 0 -12 -38 -31 -61 -32 -21 0 -28 -6 -32 -27 -3 -16 -1 -33 5 -40
5 -7 8 -20 5 -30 -2 -11 -9 0 -18 30 -19 67 -55 61 -42 -8 4 -18 2 -26 -5 -21
-6 3 -17 -1 -25 -9 -9 -8 -25 -15 -36 -15 -12 0 -21 -5 -21 -11 0 -7 -12 -10
-29 -7 -26 4 -32 0 -51 -39 -12 -24 -26 -43 -31 -43 -5 0 -9 -5 -9 -11 0 -5 5
-7 10 -4 17 11 11 -13 -7 -27 -22 -16 -26 -33 -14 -56 7 -14 4 -17 -15 -18
-21 -2 -23 0 -12 15 7 9 -5 0 -25 -18 -20 -19 -37 -37 -37 -40 0 -2 9 4 20 14
18 16 20 16 20 2 0 -10 -5 -17 -11 -17 -8 0 -7 -6 2 -17 13 -15 12 -15 -18 0
-25 13 -37 14 -63 6 -42 -15 -124 -5 -166 20 -42 25 -74 19 -49 -9 15 -17 15
-19 -1 -28 -16 -9 -15 -10 5 -17 29 -9 53 11 31 25 -8 5 -11 12 -8 15 4 4 13
3 20 -1 14 -9 17 -10 88 -23 45 -9 45 -9 10 -11 -26 -2 -29 -4 -12 -7 13 -3
31 -1 40 3 9 4 53 8 97 8 75 1 79 2 86 26 4 14 7 19 8 13 1 -7 6 -13 12 -13 7
0 9 12 7 32 -4 26 -3 29 7 14 11 -14 13 -15 19 -1 9 25 24 17 18 -10 -3 -20 0
-25 15 -25 11 0 25 10 30 23 8 17 10 11 5 -28 -4 -48 8 -59 14 -12 13 102 14
137 5 137 -6 0 -11 9 -11 20 0 11 4 20 9 20 9 0 21 -48 21 -87 0 -13 5 -34 11
-45 9 -17 13 -18 20 -7 18 28 7 -7 -12 -41 l-20 -35 5 33 c3 17 2 32 -3 32 -5
0 -11 -12 -13 -27 -3 -16 -8 -37 -13 -48 -5 -16 -5 -17 4 -5 5 8 13 11 17 7 4
-4 2 -13 -4 -19 -7 -7 -12 -20 -12 -29 0 -10 -5 -21 -11 -25 -8 -4 -9 1 -4 17
5 18 4 21 -4 9 -6 -8 -8 -23 -5 -32 3 -11 -5 -29 -20 -45 -14 -15 -26 -33 -26
-40 0 -7 -7 -13 -15 -13 -8 0 -15 -7 -15 -16 0 -8 4 -13 9 -10 16 10 20 -21 5
-49 -8 -15 -14 -33 -14 -41 0 -8 -6 -11 -15 -8 -8 4 -15 1 -15 -5 0 -6 5 -11
12 -11 9 0 9 -3 0 -12 -7 -7 -12 -20 -12 -29 0 -10 -4 -20 -9 -23 -5 -4 -7 4
-5 16 3 14 -2 10 -12 -11 -8 -19 -13 -44 -10 -56 4 -14 0 -28 -9 -35 -10 -9
-15 -9 -15 -1 0 6 5 11 10 11 6 0 10 5 10 11 0 8 -5 8 -15 -1 -9 -8 -13 -21
-9 -36 4 -14 1 -31 -6 -39 -7 -8 -10 -15 -7 -15 3 0 -8 -30 -24 -67 -16 -38
-33 -67 -39 -66 -5 2 -10 -9 -10 -25 0 -15 -4 -33 -8 -40 -5 -7 -68 -20 -161
-32 -172 -23 -175 -23 -401 -24 -165 -1 -165 -1 -205 27 -68 47 -146 129 -140
147 4 8 8 29 11 45 3 28 3 28 -5 5 -7 -21 -9 -22 -16 -8 -4 9 -3 23 1 29 5 9
2 10 -9 6 -9 -3 -23 1 -32 9 -8 9 -15 12 -15 7 0 -5 8 -16 18 -25 27 -26 42
-46 42 -58 0 -20 -19 0 -61 62 -26 39 -38 67 -33 77 5 13 8 11 13 -9 l7 -25 7
24 c3 14 1 31 -5 38 -7 9 -7 17 0 26 5 6 13 23 17 37 4 14 22 57 40 95 18 39
38 87 45 108 6 20 16 37 21 37 6 0 8 4 4 10 -3 5 0 18 7 29 12 19 12 19 30 -1
10 -12 18 -28 18 -37 0 -12 -6 -9 -20 9 -11 14 -20 20 -20 15 0 -6 5 -16 12
-23 12 -12 7 -15 -18 -11 -7 1 -24 -22 -24 -33 0 -4 7 -5 15 -2 8 4 22 0 31
-7 22 -18 44 -20 44 -3 0 8 -9 14 -20 14 -11 0 -20 7 -20 16 0 8 4 13 9 10 13
-9 32 19 25 38 -3 9 -10 16 -14 16 -4 0 -10 8 -14 18 -3 9 -9 23 -12 30 -3 7
0 10 8 7 17 -7 54 75 38 85 -5 3 -5 11 0 20 7 11 10 12 10 2 0 -13 23 -42 33
-42 3 0 -2 19 -10 41 -16 49 -11 63 8 20 13 -30 29 -41 29 -21 0 5 7 7 15 4
10 -4 13 -13 10 -24 -4 -14 1 -19 24 -22 17 -2 28 -1 25 4 -3 4 1 8 8 9 7 0 0
7 -17 14 -27 13 -19 14 98 15 70 0 127 3 127 6 0 3 -6 12 -14 20 -10 10 -39
14 -101 14 -86 0 -87 0 -81 23 3 12 6 30 6 40 0 15 10 17 75 17 l75 0 0 -30
c0 -23 4 -30 20 -30 12 0 20 -7 20 -16 0 -8 6 -22 14 -30 23 -23 46 -17 46 11
0 31 17 33 22 3 2 -13 11 -24 20 -26 13 -2 16 3 13 25 -1 15 -8 29 -14 31 -23
8 -4 42 23 42 2 0 2 -13 1 -30 -1 -16 2 -27 7 -24 11 7 10 -9 -2 -40 -9 -26
-9 -26 38 -25 26 1 39 3 29 6 -14 4 -18 13 -15 36 2 19 -2 32 -11 35 -8 3 -11
0 -7 -7 5 -7 1 -9 -8 -5 -9 3 -14 10 -11 14 3 5 0 10 -7 12 -9 3 -9 6 0 12 7
4 24 -5 42 -23 17 -16 30 -25 30 -20 0 6 4 8 9 4 6 -3 -4 21 -20 52 -16 32
-33 83 -39 113 -5 30 -14 498 -19 1040 -6 542 -14 1081 -17 1198 l-6 212 -727
-1 c-399 -1 -1000 -4 -1336 -8 l-610 -6 -58 -27 c-75 -35 -157 -114 -191 -183
-34 -71 -63 -184 -77 -300 -7 -59 -9 -508 -7 -1300 l4 -1210 22 -82 c59 -221
201 -412 369 -495 l68 -33 619 -3 c676 -3 649 -5 771 56 101 50 172 108 199
165 57 116 56 71 56 1758 l0 1549 41 0 40 0 -1 -1422 c-2 -1455 -1 -1487 37
-1616 57 -200 210 -389 374 -462 l54 -25 610 -3 609 -3 101 50 c184 92 259
175 302 332 16 59 18 182 23 1609 l5 1545 43 0 42 0 0 -1525 c0 -1636 -1
-1589 50 -1708 26 -60 105 -139 176 -175 116 -59 86 -57 956 -57 597 0 798 -3
798 -12 0 -6 -16 -60 -35 -121 -20 -60 -34 -111 -32 -113 1 -2 42 36 90 83
l87 87 49 148 c27 82 51 151 54 154 3 3 68 -15 144 -41 264 -88 622 -173 908
-214 236 -34 361 -44 575 -44 299 0 511 30 735 104 341 113 583 316 733 614
129 259 190 621 163 981 -27 372 -117 616 -295 802 -122 127 -237 196 -436
261 -118 38 -142 43 -403 87 -350 58 -441 83 -540 146 -93 60 -144 174 -134
303 18 233 190 375 527 436 116 21 637 18 800 -4 132 -19 410 -64 448 -74 l22
-5 0 466 0 466 -5532 -1 c-3043 -1 -5587 -5 -5653 -10z m2545 -1927 c16 -16
38 -59 51 -98 l24 -69 3 -685 c2 -473 0 -696 -8 -722 -6 -20 -22 -51 -36 -68
l-26 -30 -128 0 c-127 0 -129 0 -149 26 -12 15 -31 57 -43 93 -23 66 -23 71
-26 756 -3 748 -3 742 51 793 20 19 37 22 132 25 61 1 114 4 118 5 5 1 21 -11
37 -26z m1708 -1403 c13 -26 39 -65 58 -87 21 -25 32 -46 28 -56 -7 -19 -13
-20 -37 -2 -19 15 -6 33 14 21 6 -4 5 1 -2 13 -12 19 -13 19 -33 1 -21 -20
-66 -26 -66 -8 0 6 8 8 19 4 12 -3 21 0 25 10 3 8 12 15 21 15 13 0 11 6 -6
30 -26 35 -34 34 -20 -4 l11 -26 -105 0 -105 0 0 30 0 30 74 0 c82 0 88 6 80
72 -2 18 -3 106 -3 195 0 96 -4 170 -10 182 -7 13 -8 22 -1 26 5 3 10 13 10
21 0 8 -4 13 -9 10 -4 -3 -1 15 8 40 16 44 16 39 21 -213 5 -244 6 -261 28
-304z"/>
</g>
</svg>
